<svg width="16" height="16" viewBox="0 0 16 16" fill="none" xmlns="http://www.w3.org/2000/svg">
  <path
    d="M14.2222 0C15.2041 0 16 0.795938 16 1.77778V14.2222C16 15.2041 15.2041 16 14.2222 16H1.77778C0.795938 16 0 15.2041 0 14.2222V1.77778C0 0.795938 0.795938 0 1.77778 0H14.2222ZM12.4267 5.01156C12.292 4.87629 12.1091 4.80024 11.9182 4.80024C11.7274 4.80024 11.5444 4.87629 11.4098 5.01156L6.552 9.86933L4.42844 7.74489C4.29382 7.60962 4.11084 7.53357 3.92 7.53357C3.72916 7.53357 3.54618 7.60962 3.41156 7.74489C3.27601 7.87955 3.19979 8.06272 3.19979 8.25378C3.19979 8.44484 3.27601 8.62801 3.41156 8.76267L6.04533 11.3947C6.17996 11.5299 6.36293 11.606 6.55378 11.606C6.74462 11.606 6.9276 11.5299 7.06222 11.3947L12.4311 6.02667C12.5659 5.89187 12.6413 5.70881 12.6404 5.51819C12.6396 5.32756 12.5626 5.14516 12.4267 5.01156Z"
    fill="#27B8C5" />
</svg>