<svg width="12" height="12" viewBox="0 0 12 12" fill="none" xmlns="http://www.w3.org/2000/svg">
<path d="M11.3829 3.42856C11.5457 3.42633 11.7027 3.48943 11.8187 3.60381C11.9347 3.71818 12 3.87429 12 4.03718V11.3913C12 11.7274 11.7275 11.9999 11.3914 11.9999H4.04571C3.88283 12.0022 3.72583 11.9391 3.60984 11.8247C3.49385 11.7103 3.42857 11.5542 3.42857 11.3913V9.4285H8.75143C8.93102 9.4285 9.10325 9.35716 9.23024 9.23018C9.35723 9.10319 9.42857 8.93096 9.42857 8.75137V3.42856H11.3829ZM7.95429 5.73535e-05C8.11717 -0.00217651 8.27417 0.0609251 8.39016 0.175302C8.50615 0.289678 8.57143 0.445781 8.57143 0.608677V7.96282C8.57143 8.12571 8.50615 8.28182 8.39016 8.39619C8.27417 8.51057 8.11717 8.57367 7.95429 8.57144H0.608571C0.272467 8.57144 0 8.29892 0 7.96282V0.608677C0 0.272579 0.272467 5.73535e-05 0.608571 5.73535e-05H7.95429Z" fill="#27B8C5"/>
</svg>
