<svg width="14" height="11" viewBox="0 0 14 11" fill="none" xmlns="http://www.w3.org/2000/svg">
<path d="M5.13751 5.23425C5.13751 6.2274 5.94262 7.03251 6.93578 7.03251C7.92893 7.03251 8.73405 6.2274 8.73405 5.23425C8.73405 4.24109 7.92893 3.43598 6.93578 3.43598C5.94262 3.43598 5.13751 4.24109 5.13751 5.23425ZM13.9073 4.82C12.3852 1.61362 10.0844 0 7 0C3.91404 0 1.61483 1.61362 0.0927232 4.82161C-0.0309077 5.08171 -0.0309077 5.38678 0.0927232 5.64849C1.61483 8.85487 3.91565 10.4685 7 10.4685C10.086 10.4685 12.3852 8.85487 13.9073 5.64688C14.0309 5.38678 14.0309 5.08492 13.9073 4.82ZM6.93578 8.0601C5.37514 8.0601 4.10993 6.79489 4.10993 5.23425C4.10993 3.67361 5.37514 2.4084 6.93578 2.4084C8.49642 2.4084 9.76163 3.67361 9.76163 5.23425C9.76163 6.79489 8.49642 8.0601 6.93578 8.0601Z" fill="white"/>
</svg>
