<svg width="16" height="16" viewBox="0 0 16 16" fill="none" xmlns="http://www.w3.org/2000/svg">
  <g opacity="0.5">
    <path fill-rule="evenodd" clip-rule="evenodd"
      d="M1.17287 6.92438C0.801751 7.59108 0.801751 8.40348 1.17287 9.07019C2.56686 11.5744 5.07187 13.2446 7.93038 13.2446C10.7889 13.2446 13.2939 11.5744 14.6879 9.07019C15.059 8.40348 15.059 7.59108 14.6879 6.92438C13.2939 4.42013 10.7889 2.75 7.93038 2.75C5.07187 2.75 2.56686 4.42013 1.17287 6.92438ZM9.81361 7.99836C9.81361 9.03838 8.97051 9.88148 7.93049 9.88148C6.89047 9.88148 6.04736 9.03838 6.04736 7.99836C6.04736 6.95834 6.89047 6.11523 7.93049 6.11523C8.97051 6.11523 9.81361 6.95834 9.81361 7.99836ZM10.8136 7.99836C10.8136 9.59066 9.52279 10.8815 7.93049 10.8815C6.33818 10.8815 5.04736 9.59066 5.04736 7.99836C5.04736 6.40605 6.33818 5.11523 7.93049 5.11523C9.52279 5.11523 10.8136 6.40605 10.8136 7.99836Z"
      fill="black" />
  </g>
</svg>