<svg width="16" height="16" viewBox="0 0 16 16" fill="none" xmlns="http://www.w3.org/2000/svg">
  <g opacity="0.5">
    <path fill-rule="evenodd" clip-rule="evenodd"
      d="M10.3363 3.27821C9.59935 3.02073 8.81457 2.88184 8.00039 2.88184C5.22156 2.88184 2.78518 4.49979 1.42258 6.92861C1.04924 7.59408 1.04924 8.40709 1.42258 9.07256C1.793 9.73282 2.24276 10.3332 2.75719 10.8574L5.05285 8.5617C5.01844 8.37986 5.00043 8.19221 5.00043 8.00037C5.00043 6.34351 6.34357 5.00037 8.00043 5.00037C8.19228 5.00037 8.37992 5.01837 8.56176 5.05279L10.3363 3.27821ZM7.4395 10.948C7.62121 10.9824 7.80872 11.0004 8.00043 11.0004C9.65728 11.0004 11.0004 9.65722 11.0004 8.00037C11.0004 7.80866 10.9824 7.62115 10.9481 7.43944L13.2437 5.14387C13.7581 5.66806 14.2078 6.26837 14.5782 6.92861C14.9515 7.59408 14.9515 8.4071 14.5782 9.07256C13.2156 11.5014 10.7792 13.1193 8.00039 13.1193C7.18625 13.1193 6.4015 12.9805 5.66453 12.723L7.4395 10.948Z"
      fill="black" />
    <rect x="12.9727" y="1.83496" width="1.6875" height="15.75" rx="0.84375" transform="rotate(45 12.9727 1.83496)"
      fill="black" />
  </g>
</svg>