<svg width="12" height="14" viewBox="0 0 12 14" fill="none" xmlns="http://www.w3.org/2000/svg">
<path d="M5.38559 1.94033H3.33755C3.19595 1.94033 3.08723 1.90746 3.01138 1.84172C2.93552 1.77598 2.88243 1.69254 2.85209 1.5914C2.82174 1.49027 2.80657 1.37649 2.80657 1.25006C2.80657 1.12364 2.81669 1.0048 2.83692 0.893552C2.84703 0.782301 2.86726 0.660935 2.8976 0.529456C2.92794 0.397977 2.97092 0.286726 3.02655 0.195702C3.08217 0.104678 3.1555 0.0439949 3.24652 0.0136536C3.33755 -0.0166878 3.4488 0.0085967 3.58028 0.0895069C3.73198 0.180531 3.90392 0.27914 4.09608 0.385335C4.28824 0.49153 4.47535 0.597724 4.6574 0.703919C4.83944 0.810114 5.00885 0.906195 5.16561 0.992162C5.32238 1.07813 5.44121 1.1464 5.52212 1.19697C5.62326 1.26776 5.69912 1.34614 5.74968 1.43211C5.80025 1.51808 5.82048 1.59899 5.81037 1.67484C5.80025 1.7507 5.7598 1.81391 5.689 1.86448C5.6182 1.91504 5.51707 1.94033 5.38559 1.94033ZM6.5689 1.92516H8.60177C8.74336 1.92516 8.85209 1.89229 8.92794 1.82655C9.00379 1.76081 9.05689 1.67737 9.08723 1.57623C9.11757 1.47509 9.13274 1.36131 9.13274 1.23489C9.13274 1.10847 9.12769 0.989633 9.11757 0.878382C9.09735 0.76713 9.07459 0.648293 9.0493 0.521871C9.02402 0.395449 8.98357 0.286726 8.92794 0.195702C8.87231 0.104678 8.79899 0.0439949 8.70796 0.0136536C8.61694 -0.0166877 8.50569 0.00353982 8.37421 0.0743363C8.2225 0.16536 8.05057 0.26397 7.85841 0.370164C7.66625 0.476359 7.47661 0.582554 7.28951 0.688748C7.1024 0.794943 6.93047 0.891024 6.7737 0.976991C6.61694 1.06296 6.50316 1.13123 6.43236 1.1818C6.32111 1.25259 6.2402 1.33097 6.18963 1.41694C6.13906 1.50291 6.11884 1.58382 6.12895 1.65967C6.13906 1.73552 6.17952 1.79874 6.25032 1.8493C6.32111 1.89987 6.42731 1.92516 6.5689 1.92516ZM5.1732 2.92642H0.773704C0.450063 2.92642 0.240202 2.97952 0.144121 3.08571C0.0480404 3.19191 0 3.36131 0 3.59393V4.92895C0 5.18179 0.0530973 5.3689 0.159292 5.49026C0.265487 5.61163 0.475348 5.67231 0.788875 5.67231H5.1732V2.92642ZM6.8268 2.92642H11.1656C11.4893 2.92642 11.7092 2.98963 11.8255 3.11606C11.9418 3.24248 12 3.422 12 3.65461V4.95929C12 5.20202 11.9469 5.38154 11.8407 5.49785C11.7345 5.61416 11.5247 5.67231 11.2111 5.67231H6.8268V2.92642ZM5.1732 6.47636H0.515803V8.96435V9.95044V10.8759V11.6647V12.2109C0.515803 12.7267 0.662453 13.1262 0.955752 13.4094C1.24905 13.6925 1.70417 13.8341 2.32111 13.8341H5.1732V6.47636ZM6.8268 6.47636H11.469V12.1654C11.4589 12.6812 11.3123 13.0882 11.0291 13.3866C10.7459 13.685 10.2958 13.8341 9.67889 13.8341H6.8268V6.47636Z" fill="url(#paint0_linear_157_2948)"/>
<defs>
<linearGradient id="paint0_linear_157_2948" x1="-0.833333" y1="6.91707" x2="13.1667" y2="6.91707" gradientUnits="userSpaceOnUse">
<stop stop-color="#FFC774"/>
<stop offset="1" stop-color="#FF4D00"/>
</linearGradient>
</defs>
</svg>
