<svg width="12" height="14" viewBox="0 0 12 14" fill="none" xmlns="http://www.w3.org/2000/svg">
<path d="M3.27372 13.3603C2.38924 11.4983 2.85476 10.4276 3.55303 9.45C4.29786 8.33276 4.48407 7.26207 4.48407 7.26207C4.48407 7.26207 5.08924 8.0069 4.85648 9.21724C5.88062 8.05345 6.06683 6.19138 5.92717 5.4931C8.25476 7.12241 9.27889 10.7069 7.92889 13.3138C15.0979 9.21724 9.69786 3.11897 8.76683 2.46724C9.09269 3.16552 9.13924 4.32931 8.48752 4.88793C7.41683 0.79138 4.76338 0 4.76338 0C5.08924 2.09483 3.64614 4.37586 2.24958 6.09828C2.20303 5.26034 2.15648 4.70172 1.69096 3.86379C1.59786 5.4 0.434067 6.61034 0.108205 8.14655C-0.310761 10.2414 0.434067 11.731 3.27372 13.3603Z" fill="url(#paint0_linear_157_2947)"/>
<defs>
<linearGradient id="paint0_linear_157_2947" x1="-0.805019" y1="6.68017" x2="12.7193" y2="6.68017" gradientUnits="userSpaceOnUse">
<stop stop-color="#FFC774"/>
<stop offset="1" stop-color="#FF4D00"/>
</linearGradient>
</defs>
</svg>
