<svg width="105" height="95" viewBox="0 0 105 95" fill="none" xmlns="http://www.w3.org/2000/svg">
<path d="M104.834 61.888L58.8623 82.9299L60.6986 50.2383L104.834 61.888Z" fill="url(#paint0_linear_81_6795)"/>
<path d="M16.3992 0V77.3489L72.3776 66.5795V11.9614L16.3992 0Z" fill="url(#paint1_linear_81_6795)"/>
<path d="M59.6415 69.0232L58.8623 82.9262L72.3778 66.5762L59.6415 69.0232Z" fill="url(#paint2_linear_81_6795)"/>
<path fill-rule="evenodd" clip-rule="evenodd" d="M38.6159 16.8853L40.2543 16.085L39.1424 14.3203L37.4408 15.1458L38.6159 16.8853ZM48.3029 28.7279L41.682 18.3586L40.1153 19.1167L38.6159 16.8929L36.788 17.7816L47.0647 33.7862H50.6404L53.9046 23.5475L52.54 22.8399L53.1325 21.2765L54.4145 21.9448L54.941 20.2811L53.7196 19.6452L53.1311 21.2717L51.6471 20.515L48.3029 28.7279ZM52.3756 38.2576L58.2721 41.627L58.7775 40.0813L60.4622 40.9826L59.9147 42.5831L61.5994 43.5434L62.3701 41.2943L60.6854 40.3845L61.0477 39.3358L55.6903 36.455L61.393 31.7673L59.6199 29.3539L52.085 34.8882L52.3756 38.2576ZM57.6533 53.2316L56.1076 54.2635L50.3627 45.6505L45.2412 61.0234L44.5126 63.2598L42.5373 62.9439L40.4314 62.5607L42.1667 57.7677L42.4615 56.9801L43.3249 54.651L48.4127 40.9375H51.3609L57.4511 50.1655L56.1665 51.0289L57.6533 53.2316ZM37.8876 40.1008L39.3069 41.8992L39.2943 41.9034L36.9159 43.7071L35.453 41.8996L30.0325 45.8965L31.5698 47.8382L28.4194 50.2262L26.8484 48.2383L24.4014 50.0367L26.0018 52.0626L28.4194 50.2262L29.8219 52.012L36.3712 46.9958L34.9939 45.1721L36.909 43.718L38.313 45.5003L45.991 39.6249L45.5235 36.0322L30.7823 27.9625L29.8019 29.553L29.7968 29.5503L29.7959 29.5519L27.4382 28.3163L28.428 26.6737L25.9304 25.3259L24.7216 27.356L26.5032 28.2994L25.2397 30.3632L26.1199 30.7844L28.3732 31.871L29.7959 29.5519L29.801 29.5545L29.8019 29.553L31.9237 30.6707L30.5381 32.9197L40.8821 37.9149L37.8876 40.1008ZM27.9857 40.7863C27.7177 40.9654 27.4025 41.061 27.0802 41.061C26.6479 41.061 26.2333 40.8893 25.9276 40.5836C25.6219 40.2779 25.4502 39.8633 25.4502 39.4311C25.4502 39.1087 25.5458 38.7935 25.7249 38.5255C25.904 38.2575 26.1586 38.0485 26.4564 37.9252C26.7542 37.8018 27.082 37.7695 27.3982 37.8324C27.7143 37.8953 28.0048 38.0506 28.2327 38.2785C28.4607 38.5065 28.6159 38.7969 28.6788 39.1131C28.7417 39.4293 28.7094 39.757 28.586 40.0548C28.4627 40.3526 28.2538 40.6072 27.9857 40.7863ZM51.1924 56.18C51.4258 56.1809 51.6542 56.1124 51.8487 55.9833C52.0432 55.8543 52.195 55.6704 52.2849 55.455C52.3748 55.2396 52.3988 55.0023 52.3537 54.7733C52.3087 54.5442 52.1967 54.3337 52.032 54.1684C51.8672 54.003 51.6571 53.8903 51.4282 53.8444C51.1993 53.7986 50.962 53.8217 50.7463 53.9108C50.5305 54 50.3461 54.1511 50.2163 54.3451C50.0866 54.5392 50.0173 54.7673 50.0173 55.0008C50.0167 55.1554 50.0467 55.3087 50.1055 55.4517C50.1643 55.5948 50.2508 55.7248 50.36 55.8344C50.4692 55.9439 50.5989 56.0309 50.7417 56.0902C50.8846 56.1495 51.0377 56.18 51.1924 56.18ZM61.6143 36.8119C61.4592 36.9156 61.2768 36.9709 61.0902 36.9709C60.84 36.9709 60.6 36.8715 60.4231 36.6946C60.2462 36.5177 60.1468 36.2777 60.1468 36.0275C60.1468 35.8409 60.2021 35.6585 60.3058 35.5033C60.4094 35.3482 60.5568 35.2273 60.7291 35.1559C60.9015 35.0845 61.0912 35.0658 61.2742 35.1022C61.4573 35.1386 61.6254 35.2284 61.7573 35.3604C61.8892 35.4923 61.9791 35.6604 62.0155 35.8434C62.0519 36.0264 62.0332 36.2161 61.9618 36.3885C61.8904 36.5609 61.7695 36.7083 61.6143 36.8119ZM47.4059 21.2753C47.6826 21.2761 47.9533 21.1948 48.1838 21.0417C48.4144 20.8886 48.5942 20.6705 48.7007 20.415C48.8072 20.1596 48.8355 19.8783 48.782 19.6068C48.7285 19.3353 48.5957 19.0857 48.4003 18.8897C48.2049 18.6938 47.9558 18.5602 47.6844 18.5059C47.4131 18.4516 47.1317 18.479 46.8759 18.5847C46.6202 18.6904 46.4015 18.8697 46.2477 19.0997C46.0939 19.3297 46.0118 19.6003 46.0118 19.877C46.0118 20.2471 46.1585 20.6022 46.4198 20.8643C46.6812 21.1264 47.0357 21.2742 47.4059 21.2753ZM56.1032 54.2655L54.9871 55.0194L55.9979 56.5525L57.1182 55.8112L56.1032 54.2655ZM64.2908 41.0539L62.7409 40.2158L63.2295 38.8301L64.771 39.6598L64.2908 41.0539Z" fill="white"/>
<path fill-rule="evenodd" clip-rule="evenodd" d="M42.9584 79.8757L42.5709 85.33V85.3342L44.0998 85.0351L44.4872 79.5809L42.9584 79.8757ZM43.11 77.7951L43.0131 79.1134V79.1218L44.542 78.8186L44.6389 77.4961L43.11 77.7951ZM40.7517 85.7968C40.4584 85.8684 40.1521 85.8684 39.8588 85.7968C39.7451 85.7612 39.6426 85.6967 39.5613 85.6096C39.4801 85.5225 39.423 85.4157 39.3955 85.2998C39.3057 84.9149 39.2829 84.5173 39.3281 84.1247L39.4882 81.8756L38.9491 82.0062L39.0459 80.6374L39.585 80.5321L39.6819 79.1759L41.2108 78.881L41.1139 80.2372L42.2932 80.0056L42.1963 81.3702L41.0128 81.6019L40.8822 83.434C40.8676 83.6232 40.8676 83.8133 40.8822 84.0025C40.8822 84.0534 40.8935 84.1036 40.9154 84.1495C40.9372 84.1954 40.9691 84.2359 41.0086 84.2679C41.1106 84.3138 41.2258 84.3213 41.3329 84.289C41.3975 84.2779 41.4609 84.261 41.5224 84.2384C41.5752 84.2208 41.6265 84.2092 41.679 84.1974C41.7144 84.1893 41.7504 84.1812 41.7878 84.171L41.9941 84.1163L41.9394 85.4219C41.7709 85.4893 41.573 85.5651 41.3371 85.6451C41.1013 85.7252 40.9159 85.7799 40.7601 85.8136L40.7517 85.7968ZM26.9752 88.3834L27.5101 81.0086L29.4054 80.6379L31.1196 84.9213L31.288 84.8876L31.625 80.1999L33.2002 79.8925L32.6695 87.2672L30.7952 87.6379L29.0684 83.2661L28.9 83.2998L28.5546 88.0927L26.9752 88.4002V88.3834ZM23.3283 89.0897L23.3273 89.1025V89.0898L23.3283 89.0897ZM23.3283 89.0897L23.719 83.6272L25.2479 83.3282L25.2016 83.9473C25.335 83.8147 25.4756 83.6896 25.6228 83.5724C25.7912 83.4377 25.9681 83.3071 26.1534 83.1849C26.3187 83.0749 26.4969 82.9857 26.6841 82.9196L26.5704 84.5074C26.392 84.5678 26.2187 84.6424 26.0524 84.7307C25.8782 84.8178 25.7151 84.9197 25.5563 85.0191L25.5259 85.0381C25.3574 85.1434 25.2142 85.2445 25.1047 85.3287L24.8562 88.7908L23.3283 89.0897ZM20.1521 89.848C19.7129 89.9655 19.2489 89.9523 18.817 89.8101C18.6551 89.7392 18.5117 89.6321 18.3978 89.497C18.2839 89.3619 18.2025 89.2025 18.16 89.0309C18.04 88.535 18.0058 88.0222 18.0589 87.5147C18.0872 86.9351 18.2169 86.3649 18.4422 85.83C18.6263 85.394 18.9157 85.0105 19.2845 84.7139C19.6776 84.4187 20.1352 84.2209 20.6196 84.1369C21.3946 83.9853 21.959 84.0737 22.3043 84.398C22.6497 84.7223 22.814 85.3288 22.7508 86.2006L22.6076 87.0767L19.5751 87.6748C19.5379 87.9287 19.59 88.1878 19.7225 88.4076C19.8405 88.555 20.0595 88.5929 20.3796 88.534L21.0703 88.3823L21.841 88.1886L22.4939 88.0201L22.4391 89.1405C22.2664 89.2078 22.0432 89.2921 21.7821 89.3847C21.521 89.4774 21.2472 89.5616 20.965 89.6459C20.6828 89.7301 20.4175 89.7975 20.1606 89.848H20.1521ZM19.6214 86.6681L21.2556 86.3481C21.3123 86.0533 21.2694 85.7481 21.1335 85.4804C21.058 85.4031 20.9618 85.3492 20.8565 85.3253C20.7511 85.3014 20.641 85.3085 20.5396 85.3457C20.2837 85.3892 20.0536 85.5275 19.8952 85.7331C19.7222 86.0148 19.6277 86.3376 19.6214 86.6681ZM12.9415 85.7562L12.3856 93.4679H12.4151L13.9439 93.1646L14.1082 90.9071H14.5294C14.7006 90.9083 14.8714 90.8913 15.039 90.8566C15.5095 90.7778 15.9551 90.5903 16.3404 90.3091C16.6851 90.0275 16.9471 89.6578 17.0986 89.2393C17.2903 88.6967 17.4024 88.1293 17.4313 87.5546C17.4945 86.6111 17.3934 85.9373 17.1407 85.5161C16.888 85.0949 16.4162 84.9601 15.7382 85.0949C15.5727 85.1274 15.4125 85.1827 15.2622 85.2592C15.1024 85.331 14.95 85.4185 14.8074 85.5203C14.6642 85.6214 14.5462 85.7098 14.4494 85.7941V85.4613L12.9415 85.7562ZM15.4181 89.2519C15.2627 89.4046 15.0643 89.506 14.8495 89.5425L14.8453 89.5678C14.7173 89.5929 14.5879 89.6098 14.4578 89.6183H14.1672L14.3567 86.9733C14.4241 86.9228 14.5083 86.8681 14.6052 86.8133C14.7021 86.7586 14.8074 86.708 14.9084 86.6617C15.0008 86.6219 15.0967 86.5908 15.1948 86.569C15.2975 86.5365 15.4078 86.5373 15.5099 86.5714C15.6121 86.6054 15.7008 86.6709 15.7634 86.7586C15.9092 87.0967 15.9517 87.4703 15.8856 87.8325C15.8697 88.1182 15.8203 88.4009 15.7382 88.6749C15.6786 88.8898 15.5689 89.0876 15.4181 89.2519ZM0.815674 93.5075L1.35056 86.1369L2.92576 85.8252L2.72781 88.824L5.0864 88.3565L5.30119 85.3662L6.8806 85.0587L6.34992 92.4335L4.77051 92.741L4.9811 89.7927L2.62251 90.2518L2.41193 93.2L0.832518 93.5075H0.815674ZM8.5274 94.2176L9.32763 91.838L8.15255 92.0696L7.42813 86.8344L9.02438 86.5185L9.51295 90.4228L9.74038 90.3765L10.806 86.1648L12.3348 85.8657L10.17 93.8891L8.5316 94.2092L8.5274 94.2176ZM34.4873 86.9688C34.695 87.0033 34.9079 86.9867 35.1078 86.9205C35.3189 86.876 35.526 86.814 35.7269 86.7352C35.9236 86.6567 36.115 86.5652 36.2997 86.4615C36.3655 86.421 36.4285 86.3832 36.4875 86.3479L36.4881 86.3475L36.4881 86.3475L36.4883 86.3474C36.5764 86.2947 36.6554 86.2473 36.7209 86.2045C36.7928 86.2784 36.8828 86.3322 36.982 86.3604C37.1166 86.4096 37.2608 86.4269 37.4032 86.4109C37.5455 86.4028 37.6866 86.3802 37.8243 86.3435C37.9793 86.3103 38.1214 86.2706 38.2562 86.233L38.3129 86.2172L38.4224 85.1011C38.3382 85.0988 38.2552 85.0802 38.1781 85.0463C38.1435 85.031 38.1134 85.0071 38.0905 84.9768C38.0677 84.9466 38.0529 84.9111 38.0476 84.8736L38.2202 82.4856C38.2721 82.1265 38.2164 81.7601 38.0602 81.4326C37.9883 81.3185 37.8922 81.2215 37.7787 81.1487C37.6651 81.076 37.5369 81.0291 37.4032 81.0114C37.0394 80.9635 36.6701 80.9806 36.3123 81.062C36.068 81.1125 35.8153 81.1799 35.5374 81.2641L34.7455 81.5379C34.5097 81.6348 34.2738 81.7316 34.0885 81.8159L34.059 82.9488C34.1899 82.9074 34.3449 82.8635 34.5149 82.8153L34.515 82.8153L34.5151 82.8153L34.5152 82.8152L34.6824 82.7677C34.9182 82.7004 35.1667 82.633 35.411 82.5698C35.6553 82.5066 35.8785 82.4561 36.0765 82.4182C36.234 82.3681 36.4048 82.3817 36.5524 82.4561C36.6074 82.5099 36.6482 82.5766 36.671 82.6501C36.6938 82.7237 36.6979 82.8017 36.683 82.8772V83.1552L35.5542 83.4753C35.2051 83.5558 34.8681 83.6818 34.5518 83.8502C34.2808 83.9929 34.0525 84.2051 33.8906 84.4651C33.7155 84.7755 33.6186 85.1239 33.6084 85.4801C33.5651 85.6971 33.5701 85.9209 33.6233 86.1357C33.6764 86.3505 33.7763 86.5509 33.9158 86.7226C34.0835 86.8498 34.2797 86.9343 34.4873 86.9688ZM35.9206 85.5433C35.8093 85.5919 35.6937 85.63 35.5753 85.657V85.6612C35.5143 85.6811 35.4488 85.683 35.3868 85.6665C35.3248 85.6501 35.2688 85.6161 35.2257 85.5686C35.1483 85.4427 35.1184 85.2933 35.1415 85.1474C35.15 84.9796 35.2054 84.8177 35.3015 84.6799C35.4127 84.551 35.5591 84.4574 35.7227 84.4103L36.6071 84.1534L36.5313 85.2274C36.4443 85.2829 36.3543 85.3335 36.2618 85.379C36.1514 85.4404 36.0375 85.4953 35.9206 85.5433ZM47.3092 84.5299C46.8603 84.6454 46.3882 84.6352 45.9446 84.5004C45.7736 84.4343 45.6205 84.329 45.4976 84.193C45.3747 84.0569 45.2854 83.8939 45.2371 83.717C45.095 83.1961 45.0522 82.6532 45.1107 82.1165C45.1392 81.545 45.2645 80.9825 45.4813 80.4529C45.6622 80.0279 45.953 79.6586 46.3237 79.3831C46.7421 79.1029 47.2138 78.9122 47.7094 78.8229C48.1526 78.7092 48.6184 78.7179 49.0571 78.8482C49.2277 78.9106 49.3819 79.0108 49.5081 79.1414C49.6343 79.272 49.7293 79.4295 49.7858 79.6021C49.9355 80.11 49.9828 80.6426 49.9247 81.1689C49.8964 81.7464 49.7741 82.3155 49.5625 82.8536C49.3882 83.2882 49.0966 83.6659 48.7202 83.9444C48.2963 84.237 47.8131 84.4326 47.305 84.5172L47.3092 84.5299ZM47.4061 83.1653C47.6161 83.1336 47.8122 83.0414 47.9705 82.8999C48.1144 82.751 48.2123 82.5639 48.2527 82.3608C48.3209 82.0689 48.3632 81.7715 48.379 81.4721C48.4143 81.1925 48.4143 80.9095 48.379 80.6298C48.3752 80.5461 48.3518 80.4644 48.3109 80.3913C48.2699 80.3182 48.2125 80.2556 48.1432 80.2086C47.9821 80.1342 47.7996 80.1207 47.6293 80.1707C47.4344 80.2027 47.2514 80.2855 47.0987 80.4108C46.9513 80.5501 46.8461 80.7282 46.7954 80.9246C46.7163 81.212 46.6682 81.5072 46.6522 81.8049C46.6236 82.092 46.6236 82.3812 46.6522 82.6683C46.6575 82.7498 46.6798 82.8294 46.7175 82.9019C46.7552 82.9744 46.8075 83.0382 46.8712 83.0894C47.0359 83.172 47.2263 83.1871 47.4019 83.1316L47.4061 83.1653ZM50.545 83.7496L50.5441 83.7624V83.7497L50.545 83.7496ZM50.545 83.7496L52.0729 83.4549L52.3551 79.5506C52.4391 79.4938 52.5263 79.4417 52.6163 79.3948C52.7216 79.34 52.8269 79.2895 52.9406 79.2432C53.0486 79.2018 53.1599 79.1694 53.2733 79.1463C53.3434 79.1237 53.4177 79.1173 53.4906 79.1275C53.5636 79.1378 53.6333 79.1643 53.6945 79.2053C53.7517 79.2592 53.797 79.3246 53.8274 79.3972C53.8579 79.4697 53.8729 79.5478 53.8714 79.6264C53.9013 79.8966 53.9013 80.1692 53.8714 80.4393L53.6776 83.1475L55.2065 82.8442L55.4087 80.0434C55.4608 79.5142 55.4438 78.9804 55.3581 78.4556C55.3403 78.2975 55.2862 78.1456 55.2 78.0119C55.1137 77.8782 54.9978 77.7663 54.8611 77.6848C54.5138 77.5516 54.1327 77.5339 53.7745 77.6343C53.6111 77.6695 53.4527 77.7246 53.3028 77.7985C53.1396 77.8771 52.9808 77.9643 52.8269 78.0597C52.6895 78.1474 52.5573 78.243 52.431 78.3461L52.452 78.0091L50.9358 78.3082L50.545 83.7496Z" fill="url(#paint3_linear_81_6795)"/>
<defs>
<linearGradient id="paint0_linear_81_6795" x1="52.4099" y1="61.7027" x2="61.3364" y2="97.2922" gradientUnits="userSpaceOnUse">
<stop stop-color="#2889A6"/>
<stop offset="1" stop-color="#0E4257"/>
</linearGradient>
<linearGradient id="paint1_linear_81_6795" x1="-21.9278" y1="5.89646" x2="103.583" y2="149.517" gradientUnits="userSpaceOnUse">
<stop stop-color="#2889A6"/>
<stop offset="0.557292" stop-color="#0E4257"/>
</linearGradient>
<linearGradient id="paint2_linear_81_6795" x1="49.6086" y1="67.8226" x2="75.4485" y2="101.596" gradientUnits="userSpaceOnUse">
<stop stop-color="#2889A6"/>
<stop offset="0.557292" stop-color="#0E4257"/>
</linearGradient>
<linearGradient id="paint3_linear_81_6795" x1="-36.5829" y1="78.7708" x2="-26.3637" y2="131.552" gradientUnits="userSpaceOnUse">
<stop stop-color="#2889A6"/>
<stop offset="0.557292" stop-color="#0E4257"/>
</linearGradient>
</defs>
</svg>
