<svg width="15" height="16" viewBox="0 0 15 16" fill="none" xmlns="http://www.w3.org/2000/svg">
<path d="M14.4161 4.60343C14.0386 3.70254 13.4951 2.89392 12.8039 2.19938C12.1127 1.50651 11.3058 0.961283 10.4049 0.583815C9.48385 0.196282 8.50747 0 7.49921 0H7.46566C6.45069 0.00503296 5.46927 0.206352 4.5449 0.602274C3.6524 0.984775 2.85217 1.52833 2.16769 2.22119C1.48322 2.91405 0.946373 3.71932 0.573938 4.61685C0.18976 5.54626 -0.00484607 6.53438 9.16573e-05 7.55103C0.00521974 8.71531 0.283707 9.8712 0.803774 10.9046V13.4546C0.803774 13.8807 1.14937 14.2263 1.57381 14.2263H4.12046C5.1522 14.7481 6.30474 15.0266 7.46734 15.0316H7.50257C8.50579 15.0316 9.47714 14.837 10.3931 14.4562C11.289 14.0821 12.0943 13.5452 12.7838 12.8591C13.4749 12.1729 14.0185 11.371 14.3993 10.4768C14.7936 9.55077 14.9949 8.566 15 7.54936C15.0033 6.52768 14.8053 5.5362 14.4161 4.60343ZM4.15065 8.32107C3.70776 8.32107 3.34707 7.96038 3.34707 7.5158C3.34707 7.07123 3.70776 6.71054 4.15065 6.71054C4.59355 6.71054 4.95424 7.07123 4.95424 7.5158C4.95424 7.96038 4.59523 8.32107 4.15065 8.32107ZM7.49921 8.32107C7.05632 8.32107 6.69563 7.96038 6.69563 7.5158C6.69563 7.07123 7.05632 6.71054 7.49921 6.71054C7.94211 6.71054 8.3028 7.07123 8.3028 7.5158C8.3028 7.96038 7.94211 8.32107 7.49921 8.32107ZM10.8478 8.32107C10.4049 8.32107 10.0442 7.96038 10.0442 7.5158C10.0442 7.07123 10.4049 6.71054 10.8478 6.71054C11.2907 6.71054 11.6514 7.07123 11.6514 7.5158C11.6514 7.96038 11.2907 8.32107 10.8478 8.32107Z" fill="white"/>
</svg>
