<svg width="36" height="36" viewBox="0 0 36 36" fill="none" xmlns="http://www.w3.org/2000/svg">
<rect opacity="0.2" width="36" height="36" rx="18" fill="white"/>
<path fill-rule="evenodd" clip-rule="evenodd" d="M18.2505 10C22.4514 10 26.0427 13.5817 26.0427 17.7714C26.0427 22.4183 22.4514 26 18.2505 26C13.5913 26 10 22.4183 10 17.7714C10 13.5817 13.5913 10 18.2505 10ZM18.2485 11.8824C14.6336 11.8824 11.8874 14.6213 11.8874 18.2266C11.8874 21.3787 14.6336 24.1176 18.2485 24.1176C21.409 24.1176 24.1553 21.3787 24.1553 18.2266C24.1553 14.6213 21.409 11.8824 18.2485 11.8824ZM18.0213 15.1765C19.5846 15.1765 20.8524 16.4403 20.8524 18C20.8524 19.5592 19.5846 20.8235 18.0213 20.8235C16.458 20.8235 15.1903 19.5592 15.1903 18C15.1903 16.4403 16.458 15.1765 18.0213 15.1765Z" fill="white"/>
</svg>
