<svg width="16" height="16" viewBox="0 0 16 16" fill="none" xmlns="http://www.w3.org/2000/svg">
<path fill-rule="evenodd" clip-rule="evenodd" d="M5.5 2.5C5.5 2.22386 5.72386 2 6 2H14C14.2761 2 14.5 2.22386 14.5 2.5V13C14.5 13.5523 14.0523 14 13.5 14H6.5H5.5H2.5C1.94772 14 1.5 13.5523 1.5 13V8.5C1.5 8.22386 1.72386 8 2 8H5.5V2.5ZM7 6.25C7 5.83579 7.33579 5.5 7.75 5.5H12.25C12.6642 5.5 13 5.83579 13 6.25C13 6.66421 12.6642 7 12.25 7H7.75C7.33579 7 7 6.66421 7 6.25ZM7 9.75C7 9.33579 7.33579 9 7.75 9H12.25C12.6642 9 13 9.33579 13 9.75C13 10.1642 12.6642 10.5 12.25 10.5H7.75C7.33579 10.5 7 10.1642 7 9.75ZM3.75 9.5C3.33579 9.5 3 9.83579 3 10.25V11.75C3 12.1642 3.33579 12.5 3.75 12.5C4.16421 12.5 4.5 12.1642 4.5 11.75V10.25C4.5 9.83579 4.16421 9.5 3.75 9.5Z" fill="#27B8C5"/>
</svg>
