<svg width="16" height="14" viewBox="0 0 16 14" fill="none" xmlns="http://www.w3.org/2000/svg">
<path d="M4.46171 13.9955C4.13257 13.9955 3.83086 13.8191 3.66629 13.5388L0.123429 7.4522C-0.0411429 7.17183 -0.0411429 6.82817 0.123429 6.5478L3.66629 0.456718C3.83086 0.176357 4.13257 0 4.46171 0H11.5383C11.8674 0 12.1691 0.176357 12.3337 0.456718L15.8766 6.5478C16.0411 6.82817 16.0411 7.17183 15.8766 7.4522L12.3337 13.5433C12.1691 13.8236 11.8674 14 11.5383 14H4.46171V13.9955ZM8 3.59948C6.10286 3.59948 4.56229 5.12791 4.56229 7C4.56229 8.87209 6.10743 10.405 8 10.405C9.89257 10.405 11.4423 8.87661 11.4423 7C11.4423 5.12338 9.89714 3.59948 8 3.59948Z" fill="white"/>
</svg>
