<svg width="36" height="36" viewBox="0 0 36 36" fill="none" xmlns="http://www.w3.org/2000/svg">
<circle cx="18.0039" cy="17.999" r="17.25" fill="#25CB85"/>
<path d="M25.2875 13.1897C25.0552 12.9564 24.7396 12.8252 24.4104 12.8252C24.0812 12.8252 23.7655 12.9564 23.5333 13.1897L15.1537 21.5694L11.4905 17.9047C11.2583 17.6714 10.9427 17.5402 10.6135 17.5402C10.2842 17.5402 9.96861 17.6714 9.73639 17.9047C9.50258 18.137 9.37109 18.453 9.37109 18.7826C9.37109 19.1121 9.50258 19.4281 9.73639 19.6604L14.2797 24.2006C14.5119 24.4339 14.8275 24.5651 15.1567 24.5651C15.4859 24.5651 15.8016 24.4339 16.0338 24.2006L25.2951 14.9408C25.5276 14.7083 25.6576 14.3925 25.6562 14.0637C25.6548 13.7348 25.522 13.4202 25.2875 13.1897Z" fill="white"/>
</svg>
