<svg width="35" height="35" viewBox="0 0 35 35" fill="none" xmlns="http://www.w3.org/2000/svg">
  <path
    d="M17.5 0C7.83594 0 0 7.83594 0 17.5C0 27.1641 7.83594 35 17.5 35C27.1641 35 35 27.1641 35 17.5C35 7.83594 27.1641 0 17.5 0Z"
    fill="url(#paint0_linear_157_3581)" />
  <path
    d="M25.1763 11.4961L16.9497 22.9023C16.4536 23.5938 15.4263 23.5938 14.9302 22.9023L10.0591 16.1523C9.91065 15.9453 10.0591 15.6562 10.313 15.6562H12.145C12.5435 15.6562 12.9224 15.8477 13.1567 16.1758L15.938 20.0352L22.0786 11.5195C22.313 11.1953 22.688 11 23.0903 11H24.9224C25.1763 11 25.3247 11.2891 25.1763 11.4961Z"
    fill="white" />
  <defs>
    <linearGradient id="paint0_linear_157_3581" x1="39.5548" y1="35" x2="-3.12536e-07" y2="35"
      gradientUnits="userSpaceOnUse">
      <stop stop-color="#5B6FF8" />
      <stop offset="1" stop-color="#27B8C5" />
    </linearGradient>
  </defs>
</svg>