<svg width="120" height="120" viewBox="0 0 120 120" fill="none" xmlns="http://www.w3.org/2000/svg">
<path d="M4.79975 -0.999146H0.00131226V3.84723H4.79975V-0.999146Z" fill="#1C1C1C"/>
<path d="M9.59759 -1H4.79915V3.84637H9.59759V-1Z" fill="#1C1C1C"/>
<path d="M14.3999 -1H9.60146V3.84637H14.3999V-1Z" fill="#1C1C1C"/>
<path d="M19.1982 -1H14.3999V3.84637H19.1982V-1Z" fill="#1C1C1C"/>
<path d="M23.9966 -1H19.1982V3.84637H23.9966V-1Z" fill="#1C1C1C"/>
<path d="M28.8013 -1H24.0029V3.84637H28.8013V-1Z" fill="#1C1C1C"/>
<path d="M33.5985 -1H28.8V3.84637H33.5985V-1Z" fill="#1C1C1C"/>
<path d="M43.2015 -1H38.4031V3.84637H43.2015V-1Z" fill="#1C1C1C"/>
<path d="M47.9995 -1H43.2015V3.84637H47.9995V-1Z" fill="#1C1C1C"/>
<path d="M52.8014 -1H48.0029V3.84637H52.8014V-1Z" fill="#1C1C1C"/>
<path d="M57.6005 -1H52.8014V3.84637H57.6005V-1Z" fill="#1C1C1C"/>
<path d="M91.1985 -1H86.4001V3.84637H91.1985V-1Z" fill="#1C1C1C"/>
<path d="M96.0028 -1H91.2043V3.84637H96.0028V-1Z" fill="#1C1C1C"/>
<path d="M100.802 -1H96.0028V3.84637H100.802V-1Z" fill="#1C1C1C"/>
<path d="M105.6 -1H100.802V3.84637H105.6V-1Z" fill="#1C1C1C"/>
<path d="M110.403 -1H105.605V3.84637H110.403V-1Z" fill="#1C1C1C"/>
<path d="M115.201 -1H110.402V3.84637H115.201V-1Z" fill="#1C1C1C"/>
<path d="M120 -1H115.202V3.84637H120V-1Z" fill="#1C1C1C"/>
<path d="M4.79915 3.84637L0 3.84647V8.69284H4.79844L4.79915 3.84637Z" fill="#1C1C1C"/>
<path d="M33.5985 3.84637H28.8V8.69284H33.5985V3.84637Z" fill="#1C1C1C"/>
<path d="M57.6005 3.84637H52.8014L52.8021 8.69284H57.6005V3.84637Z" fill="#1C1C1C"/>
<path d="M62.3997 3.84647L57.6005 3.84637V8.69284H62.3997V3.84647Z" fill="#1C1C1C"/>
<path d="M67.2012 3.84647H62.4027V8.69284H67.2012V3.84647Z" fill="#1C1C1C"/>
<path d="M71.9999 3.84647H67.2012V8.69284H71.9999V3.84647Z" fill="#1C1C1C"/>
<path d="M81.6026 3.84647H76.8041V8.69284H81.6026V3.84647Z" fill="#1C1C1C"/>
<path d="M91.1985 3.84637H86.4001V8.69284H91.1985V3.84637Z" fill="#1C1C1C"/>
<path d="M120 3.84637H115.202V8.69284H120V3.84637Z" fill="#1C1C1C"/>
<path d="M4.79844 8.69284H0V13.5393H4.79844V8.69284Z" fill="#1C1C1C"/>
<path d="M14.3999 8.6929H9.60146V13.5393H14.3999V8.6929Z" fill="#1C1C1C"/>
<path d="M19.1982 8.6929H14.3999V13.5393H19.1982V8.6929Z" fill="#1C1C1C"/>
<path d="M23.9966 8.6929H19.1982V13.5393H23.9966V8.6929Z" fill="#1C1C1C"/>
<path d="M33.5985 8.69284H28.8V13.5393H33.5985V8.69284Z" fill="#1C1C1C"/>
<path d="M47.9995 8.6929H43.201V13.5393H47.9995V8.6929Z" fill="#1C1C1C"/>
<path d="M57.6005 8.69284H52.8021V13.5393H57.6005V8.69284Z" fill="#1C1C1C"/>
<path d="M67.2012 8.69284H62.4027V13.5393H67.2012V8.69284Z" fill="#1C1C1C"/>
<path d="M76.7991 8.6929L71.9999 8.69284L72.0006 13.5393H76.7991V8.6929Z" fill="#1C1C1C"/>
<path d="M81.6026 8.69284H76.8041V13.5393H81.6026V8.69284Z" fill="#1C1C1C"/>
<path d="M91.1985 8.69284H86.4001V13.5393H91.1985V8.69284Z" fill="#1C1C1C"/>
<path d="M100.802 8.6929H96.0035V13.5393H100.802V8.6929Z" fill="#1C1C1C"/>
<path d="M105.6 8.6929H100.802V13.5393H105.6V8.6929Z" fill="#1C1C1C"/>
<path d="M110.403 8.6929H105.605V13.5393H110.403V8.6929Z" fill="#1C1C1C"/>
<path d="M120 8.69284H115.202V13.5393H120V8.69284Z" fill="#1C1C1C"/>
<path d="M4.79844 13.5393H0V18.3865H4.79844V13.5393Z" fill="#1C1C1C"/>
<path d="M14.3999 13.5393H9.60146V18.3865H14.3999V13.5393Z" fill="#1C1C1C"/>
<path d="M19.1982 13.5393H14.3999V18.3865H19.1982V13.5393Z" fill="#1C1C1C"/>
<path d="M23.9966 13.5393H19.1982V18.3865H23.9966V13.5393Z" fill="#1C1C1C"/>
<path d="M33.5985 13.5393H28.8V18.3865H33.5985V13.5393Z" fill="#1C1C1C"/>
<path d="M52.8014 13.5402H48.0029V18.3865H52.8014V13.5402Z" fill="#1C1C1C"/>
<path d="M57.6005 13.5393H52.8021L52.8014 18.3865H57.6005V13.5393Z" fill="#1C1C1C"/>
<path d="M67.2012 13.5393H62.4027V18.3865H67.2012V13.5393Z" fill="#1C1C1C"/>
<path d="M76.7991 13.5393H72.0006V18.3865H76.7991V13.5393Z" fill="#1C1C1C"/>
<path d="M81.6026 13.5393H76.8041V18.3865H81.6026V13.5393Z" fill="#1C1C1C"/>
<path d="M91.1985 13.5393H86.4001V18.3865H91.1985V13.5393Z" fill="#1C1C1C"/>
<path d="M100.802 13.5393H96.0035V18.3865H100.802V13.5393Z" fill="#1C1C1C"/>
<path d="M105.6 13.5393L100.801 13.5402L100.802 18.3865H105.6V13.5393Z" fill="#1C1C1C"/>
<path d="M110.403 13.5393H105.605V18.3865H110.403V13.5393Z" fill="#1C1C1C"/>
<path d="M120 13.5393H115.202V18.3865H120V13.5393Z" fill="#1C1C1C"/>
<path d="M4.79844 18.385H0V23.2314H4.79844V18.385Z" fill="#1C1C1C"/>
<path d="M14.3999 18.385H9.60146V23.2314H14.3999V18.385Z" fill="#1C1C1C"/>
<path d="M19.1982 18.385H14.3999V23.2314H19.1982V18.385Z" fill="#1C1C1C"/>
<path d="M23.9966 18.385H19.1982V23.2314H23.9966V18.385Z" fill="#1C1C1C"/>
<path d="M33.5985 18.385H28.8V23.2314H33.5985V18.385Z" fill="#1C1C1C"/>
<path d="M52.8014 18.385H48.0029V23.2314H52.8014V18.385Z" fill="#1C1C1C"/>
<path d="M57.6005 18.385H52.8014V23.2314H57.6005V18.385Z" fill="#1C1C1C"/>
<path d="M62.3997 18.385H57.6005V23.2314H62.3997V18.385Z" fill="#1C1C1C"/>
<path d="M71.9999 18.385H67.2015V23.2314H71.9999V18.385Z" fill="#1C1C1C"/>
<path d="M81.6026 18.385H76.8041V23.2314H81.6026V18.385Z" fill="#1C1C1C"/>
<path d="M91.1985 18.385H86.4001V23.2314H91.1985V18.385Z" fill="#1C1C1C"/>
<path d="M100.802 18.385H96.0035V23.2314H100.802V18.385Z" fill="#1C1C1C"/>
<path d="M105.6 18.385H100.802V23.2314H105.6V18.385Z" fill="#1C1C1C"/>
<path d="M110.403 18.385H105.605V23.2314H110.403V18.385Z" fill="#1C1C1C"/>
<path d="M120 18.385H115.202V23.2314H120V18.385Z" fill="#1C1C1C"/>
<path d="M4.79844 23.2314H0V28.0779H4.79844V23.2314Z" fill="#1C1C1C"/>
<path d="M33.5985 23.2314H28.8V28.0779H33.5985V23.2314Z" fill="#1C1C1C"/>
<path d="M47.9995 23.2315H43.201V28.0779H47.9995V23.2315Z" fill="#1C1C1C"/>
<path d="M57.6005 23.2314H52.8014L52.8021 28.0779H57.6005V23.2314Z" fill="#1C1C1C"/>
<path d="M71.9999 23.2314H67.2015V28.0779H71.9999V23.2314Z" fill="#1C1C1C"/>
<path d="M81.6026 23.2314H76.8041V28.0779H81.6026V23.2314Z" fill="#1C1C1C"/>
<path d="M91.1985 23.2314H86.4001V28.0779H91.1985V23.2314Z" fill="#1C1C1C"/>
<path d="M120 23.2314H115.202V28.0779H120V23.2314Z" fill="#1C1C1C"/>
<path d="M4.79844 28.0779H0V32.9243H4.79844V28.0779Z" fill="#1C1C1C"/>
<path d="M9.59759 28.0779L4.79844 28.0779V32.9243H9.59759V28.0779Z" fill="#1C1C1C"/>
<path d="M14.3999 28.0779H9.60146V32.9243H14.3999V28.0779Z" fill="#1C1C1C"/>
<path d="M19.1982 28.0779H14.3999V32.9243H19.1982V28.0779Z" fill="#1C1C1C"/>
<path d="M23.9966 28.0779H19.1982V32.9243H23.9966V28.0779Z" fill="#1C1C1C"/>
<path d="M28.8013 28.0779H24.0029V32.9243H28.8013V28.0779Z" fill="#1C1C1C"/>
<path d="M33.5985 28.0779H28.8V32.9243H33.5985V28.0779Z" fill="#1C1C1C"/>
<path d="M43.201 28.0779L38.4031 28.0779V32.9243H43.2015L43.201 28.0779Z" fill="#1C1C1C"/>
<path d="M52.8021 28.0779L48.0029 28.0779V32.9243H52.8014L52.8021 28.0779Z" fill="#1C1C1C"/>
<path d="M62.3997 28.0779L57.6005 28.0779L57.6012 32.9243H62.3997V28.0779Z" fill="#1C1C1C"/>
<path d="M71.9999 28.0779H67.2015V32.9243H71.9999V28.0779Z" fill="#1C1C1C"/>
<path d="M81.6026 28.0779H76.8041V32.9243H81.6026V28.0779Z" fill="#1C1C1C"/>
<path d="M91.1985 28.0779H86.4001V32.9243H91.1985V28.0779Z" fill="#1C1C1C"/>
<path d="M96.0028 28.0779H91.2043V32.9243H96.0028V28.0779Z" fill="#1C1C1C"/>
<path d="M100.802 28.0779H96.0028V32.9243H100.802V28.0779Z" fill="#1C1C1C"/>
<path d="M105.6 28.0779H100.802V32.9243H105.6V28.0779Z" fill="#1C1C1C"/>
<path d="M110.403 28.0779H105.605V32.9243H110.403V28.0779Z" fill="#1C1C1C"/>
<path d="M115.201 28.0779H110.402V32.9243H115.201V28.0779Z" fill="#1C1C1C"/>
<path d="M120 28.0779H115.202V32.9243H120V28.0779Z" fill="#1C1C1C"/>
<path d="M43.2015 32.9243H38.4031V37.7708H43.2015V32.9243Z" fill="#1C1C1C"/>
<path d="M47.9995 32.9244L43.2015 32.9243V37.7708H47.9995V32.9244Z" fill="#1C1C1C"/>
<path d="M62.3997 32.9243H57.6012V37.7708H62.3997V32.9243Z" fill="#1C1C1C"/>
<path d="M67.2015 32.9243L62.4027 32.9244V37.7708H67.2012L67.2015 32.9243Z" fill="#1C1C1C"/>
<path d="M4.79844 37.7765H0V42.6229H4.79844V37.7765Z" fill="#1C1C1C"/>
<path d="M9.59759 37.7765H4.79844V42.6229H9.59759V37.7765Z" fill="#1C1C1C"/>
<path d="M19.1982 37.7765H14.3998V42.6229H19.1982V37.7765Z" fill="#1C1C1C"/>
<path d="M23.9966 37.7765H19.1982V42.6229H23.9966V37.7765Z" fill="#1C1C1C"/>
<path d="M33.5985 37.7765H28.8V42.6229H33.5985V37.7765Z" fill="#1C1C1C"/>
<path d="M47.9995 37.7765H43.201V42.6229H47.9995V37.7765Z" fill="#1C1C1C"/>
<path d="M62.3997 37.7765H57.6012V42.6229H62.3997V37.7765Z" fill="#1C1C1C"/>
<path d="M71.9999 37.7765H67.2015V42.6229H71.9999V37.7765Z" fill="#1C1C1C"/>
<path d="M76.7991 37.7765H71.9999V42.6229H76.7991V37.7765Z" fill="#1C1C1C"/>
<path d="M91.1985 37.7765H86.4001V42.6229H91.1985V37.7765Z" fill="#1C1C1C"/>
<path d="M120 37.7765H115.202V42.6229H120V37.7765Z" fill="#1C1C1C"/>
<path d="M4.79844 42.6229H0V47.4693H4.79844V42.6229Z" fill="#1C1C1C"/>
<path d="M9.59759 42.6229H4.79844V47.4693H9.59759V42.6229Z" fill="#1C1C1C"/>
<path d="M14.3998 42.6229L9.60146 42.623V47.4693H14.3999L14.3998 42.6229Z" fill="#1C1C1C"/>
<path d="M23.9966 42.6229H19.1982L19.1982 47.4693H23.9966V42.6229Z" fill="#1C1C1C"/>
<path d="M28.8013 42.623H24.0029V47.4693H28.8013V42.623Z" fill="#1C1C1C"/>
<path d="M38.4012 42.623H33.6027V47.4693H38.4012V42.623Z" fill="#1C1C1C"/>
<path d="M52.8014 42.623H48.0029V47.4693H52.8014V42.623Z" fill="#1C1C1C"/>
<path d="M67.2015 42.6229L62.4027 42.623V47.4693H67.2012L67.2015 42.6229Z" fill="#1C1C1C"/>
<path d="M71.9999 42.6229H67.2015L67.2012 47.4693H71.9999V42.6229Z" fill="#1C1C1C"/>
<path d="M76.7991 42.6229H71.9999V47.4693H76.7991V42.6229Z" fill="#1C1C1C"/>
<path d="M86.4017 42.623H81.6033V47.4693H86.4017V42.623Z" fill="#1C1C1C"/>
<path d="M96.0028 42.623H91.2043V47.4693H96.0028V42.623Z" fill="#1C1C1C"/>
<path d="M100.802 42.623H96.0028V47.4693H100.802V42.623Z" fill="#1C1C1C"/>
<path d="M105.6 42.623H100.802V47.4693H105.6V42.623Z" fill="#1C1C1C"/>
<path d="M110.403 42.623H105.605V47.4693H110.403V42.623Z" fill="#1C1C1C"/>
<path d="M115.201 42.623H110.402V47.4693H115.201V42.623Z" fill="#1C1C1C"/>
<path d="M4.79844 47.4693H0V52.315H4.79844V47.4693Z" fill="#1C1C1C"/>
<path d="M14.3999 47.4693H9.60146V52.315H14.3999V47.4693Z" fill="#1C1C1C"/>
<path d="M23.9966 47.4693H19.1982V52.315H23.9966V47.4693Z" fill="#1C1C1C"/>
<path d="M33.5985 47.4686H28.8V52.315H33.5985V47.4686Z" fill="#1C1C1C"/>
<path d="M38.4012 47.4693H33.6027V52.315H38.4012V47.4693Z" fill="#1C1C1C"/>
<path d="M43.2015 47.4686H38.4031V52.315H43.2015V47.4686Z" fill="#1C1C1C"/>
<path d="M47.9995 47.4686H43.2015V52.315H47.9995V47.4686Z" fill="#1C1C1C"/>
<path d="M62.3997 47.4686H57.6012V52.315H62.3997V47.4686Z" fill="#1C1C1C"/>
<path d="M76.7991 47.4693L72.0006 47.4686V52.315H76.7991V47.4693Z" fill="#1C1C1C"/>
<path d="M81.6033 47.4693L76.8041 47.4686V52.315H81.6026L81.6033 47.4693Z" fill="#1C1C1C"/>
<path d="M91.1985 47.4686H86.4001V52.315H91.1985V47.4686Z" fill="#1C1C1C"/>
<path d="M96.0028 47.4693H91.2043V52.315H96.0028V47.4693Z" fill="#1C1C1C"/>
<path d="M105.6 47.4693H100.802L100.801 52.315H105.6V47.4693Z" fill="#1C1C1C"/>
<path d="M120 47.4686H115.202V52.315H120V47.4686Z" fill="#1C1C1C"/>
<path d="M4.79844 52.315H0V57.1614H4.79844V52.315Z" fill="#1C1C1C"/>
<path d="M9.59759 52.3151L4.79844 52.315V57.1614H9.59759V52.3151Z" fill="#1C1C1C"/>
<path d="M38.4012 52.315H33.6027V57.1614H38.4012V52.315Z" fill="#1C1C1C"/>
<path d="M43.2015 52.315H38.4031V57.1614H43.2015V52.315Z" fill="#1C1C1C"/>
<path d="M76.7991 52.315H72.0006V57.1614H76.7991V52.315Z" fill="#1C1C1C"/>
<path d="M96.0028 52.315H91.2043V57.1614H96.0028V52.315Z" fill="#1C1C1C"/>
<path d="M105.6 52.315H100.801V57.1614H105.6V52.315Z" fill="#1C1C1C"/>
<path d="M110.403 52.3151H105.605V57.1614H110.403V52.3151Z" fill="#1C1C1C"/>
<path d="M115.201 52.3151H110.402V57.1614H115.201V52.3151Z" fill="#1C1C1C"/>
<path d="M120 52.315H115.202V57.1614H120V52.315Z" fill="#1C1C1C"/>
<path d="M14.3999 57.1615H9.60146V62.0079H14.3999V57.1615Z" fill="#1C1C1C"/>
<path d="M19.1982 57.1615H14.3999V62.0079H19.1982V57.1615Z" fill="#1C1C1C"/>
<path d="M33.5985 57.1615H28.8V62.0079H33.5985V57.1615Z" fill="#1C1C1C"/>
<path d="M43.2015 57.1614H38.4031V62.0079H43.2015V57.1614Z" fill="#1C1C1C"/>
<path d="M47.9995 57.1615L43.2015 57.1614V62.0079H47.9995V57.1615Z" fill="#1C1C1C"/>
<path d="M52.8014 57.1615H48.0029V62.0079H52.8014V57.1615Z" fill="#1C1C1C"/>
<path d="M72.0006 57.1614L67.2015 57.1615V62.0079H71.9999L72.0006 57.1614Z" fill="#1C1C1C"/>
<path d="M76.7991 57.1614H72.0006L71.9999 62.0079H76.7991V57.1614Z" fill="#1C1C1C"/>
<path d="M91.1985 57.1615H86.4001V62.0079H91.1985V57.1615Z" fill="#1C1C1C"/>
<path d="M120 57.1614H115.202V62.0079H120V57.1614Z" fill="#1C1C1C"/>
<path d="M4.79844 62.008H0V66.8543H4.79844V62.008Z" fill="#1C1C1C"/>
<path d="M14.3999 62.0079H9.60146V66.8543H14.3999V62.0079Z" fill="#1C1C1C"/>
<path d="M19.1982 62.0079H14.3999V66.8543H19.1982V62.0079Z" fill="#1C1C1C"/>
<path d="M28.8013 62.008H24.0029V66.8543H28.8013V62.008Z" fill="#1C1C1C"/>
<path d="M38.4012 62.008H33.6027V66.8543H38.4012V62.008Z" fill="#1C1C1C"/>
<path d="M52.8014 62.0079H48.0029V66.8543H52.8014V62.0079Z" fill="#1C1C1C"/>
<path d="M62.3997 62.008H57.6012V66.8543H62.3997V62.008Z" fill="#1C1C1C"/>
<path d="M71.9999 62.0079H67.2015V66.8543H71.9999V62.0079Z" fill="#1C1C1C"/>
<path d="M76.7991 62.0079H71.9999V66.8543H76.7991V62.0079Z" fill="#1C1C1C"/>
<path d="M81.6026 62.008H76.8041V66.8543H81.6026V62.008Z" fill="#1C1C1C"/>
<path d="M86.4017 62.008H81.6026V66.8543H86.4017V62.008Z" fill="#1C1C1C"/>
<path d="M100.802 62.008H96.0035V66.8543H100.802V62.008Z" fill="#1C1C1C"/>
<path d="M115.201 62.008H110.402V66.8543H115.201V62.008Z" fill="#1C1C1C"/>
<path d="M4.79844 66.8543H0V71.7H4.79844V66.8543Z" fill="#1C1C1C"/>
<path d="M9.59759 66.8536L4.79844 66.8543V71.7H9.59759V66.8536Z" fill="#1C1C1C"/>
<path d="M19.1982 66.8543H14.3999L14.3998 71.7H19.1982V66.8543Z" fill="#1C1C1C"/>
<path d="M23.9966 66.8536L19.1982 66.8543V71.7H23.9966V66.8536Z" fill="#1C1C1C"/>
<path d="M28.8013 66.8543H24.0029V71.7H28.8013V66.8543Z" fill="#1C1C1C"/>
<path d="M33.5985 66.8536H28.8V71.7H33.5985V66.8536Z" fill="#1C1C1C"/>
<path d="M38.4012 66.8543H33.6027V71.7H38.4012V66.8543Z" fill="#1C1C1C"/>
<path d="M47.9995 66.8536H43.201V71.7H47.9995V66.8536Z" fill="#1C1C1C"/>
<path d="M71.9999 66.8543H67.2015V71.7H71.9999V66.8543Z" fill="#1C1C1C"/>
<path d="M76.7991 66.8543L72.0006 66.8536L71.9999 71.7H76.7991V66.8543Z" fill="#1C1C1C"/>
<path d="M86.4017 66.8543H81.6026L81.6033 71.7H86.4017V66.8543Z" fill="#1C1C1C"/>
<path d="M91.1985 66.8536H86.4001V71.7H91.1985V66.8536Z" fill="#1C1C1C"/>
<path d="M100.802 66.8543H96.0035V71.7H100.802V66.8543Z" fill="#1C1C1C"/>
<path d="M105.6 66.8536L100.802 66.8543V71.7H105.6V66.8536Z" fill="#1C1C1C"/>
<path d="M110.403 66.8536H105.605V71.7H110.403V66.8536Z" fill="#1C1C1C"/>
<path d="M115.201 66.8543H110.402V71.7H115.201V66.8543Z" fill="#1C1C1C"/>
<path d="M120 66.8536H115.202V71.7H120V66.8536Z" fill="#1C1C1C"/>
<path d="M4.79844 71.7H0V76.5473H4.79844V71.7Z" fill="#1C1C1C"/>
<path d="M28.8013 71.7H24.0029V76.5473H28.8013V71.7Z" fill="#1C1C1C"/>
<path d="M38.4012 71.7H33.6027V76.5473H38.4012V71.7Z" fill="#1C1C1C"/>
<path d="M47.9995 71.7H43.201V76.5473H47.9995V71.7Z" fill="#1C1C1C"/>
<path d="M62.3997 71.7009H57.6012V76.5473H62.3997V71.7009Z" fill="#1C1C1C"/>
<path d="M71.9999 71.7H67.2015V76.5473H71.9999V71.7Z" fill="#1C1C1C"/>
<path d="M81.6026 71.7009H76.8041V76.5473H81.6026V71.7009Z" fill="#1C1C1C"/>
<path d="M86.4017 71.7H81.6033L81.6026 76.5473H86.4017V71.7Z" fill="#1C1C1C"/>
<path d="M96.0028 71.7009H91.2043V76.5473H96.0028V71.7009Z" fill="#1C1C1C"/>
<path d="M105.6 71.7L100.801 71.7009V76.5473H105.6V71.7Z" fill="#1C1C1C"/>
<path d="M110.403 71.7H105.605V76.5473H110.403V71.7Z" fill="#1C1C1C"/>
<path d="M120 71.7H115.202V76.5473H120V71.7Z" fill="#1C1C1C"/>
<path d="M4.79844 76.5473H0V81.3929H4.79844V76.5473Z" fill="#1C1C1C"/>
<path d="M14.3999 76.5466H9.60146V81.3929H14.3999V76.5466Z" fill="#1C1C1C"/>
<path d="M19.1982 76.5466H14.3999V81.3929H19.1982V76.5466Z" fill="#1C1C1C"/>
<path d="M23.9966 76.5466H19.1982V81.3929H23.9966V76.5466Z" fill="#1C1C1C"/>
<path d="M33.5985 76.5466H28.8V81.3929H33.5985V76.5466Z" fill="#1C1C1C"/>
<path d="M38.4012 76.5473H33.6027V81.3929H38.4012V76.5473Z" fill="#1C1C1C"/>
<path d="M52.8014 76.5466H48.0029V81.3929H52.8014V76.5466Z" fill="#1C1C1C"/>
<path d="M57.6005 76.5466H52.8014V81.3929H57.6005V76.5466Z" fill="#1C1C1C"/>
<path d="M62.3997 76.5473H57.6012L57.6005 81.3929H62.3997V76.5473Z" fill="#1C1C1C"/>
<path d="M67.2015 76.5473L62.4027 76.5466V81.3929H67.2012L67.2015 76.5473Z" fill="#1C1C1C"/>
<path d="M76.7991 76.5466H72.0006V81.3929H76.7991V76.5466Z" fill="#1C1C1C"/>
<path d="M81.6026 76.5473H76.8041V81.3929H81.6026V76.5473Z" fill="#1C1C1C"/>
<path d="M86.4017 76.5473H81.6026V81.3929H86.4017V76.5473Z" fill="#1C1C1C"/>
<path d="M91.1985 76.5466H86.4001V81.3929H91.1985V76.5466Z" fill="#1C1C1C"/>
<path d="M96.0028 76.5473H91.2043V81.3929H96.0028V76.5473Z" fill="#1C1C1C"/>
<path d="M100.801 76.5473H96.0028V81.3929H100.802L100.801 76.5473Z" fill="#1C1C1C"/>
<path d="M110.403 76.5473H105.605V81.3929H110.403V76.5473Z" fill="#1C1C1C"/>
<path d="M115.201 76.5466H110.402V81.3929H115.201V76.5466Z" fill="#1C1C1C"/>
<path d="M43.2015 81.3978H38.4031V86.2442H43.2015V81.3978Z" fill="#1C1C1C"/>
<path d="M47.9995 81.3978H43.2015V86.2442H47.9995V81.3978Z" fill="#1C1C1C"/>
<path d="M57.6005 81.3978H52.8021V86.2442H57.6005V81.3978Z" fill="#1C1C1C"/>
<path d="M81.6026 81.3978H76.8041V86.2442H81.6026V81.3978Z" fill="#1C1C1C"/>
<path d="M100.802 81.3978H96.0035V86.2442H100.802V81.3978Z" fill="#1C1C1C"/>
<path d="M110.403 81.3978H105.605V86.2442H110.403V81.3978Z" fill="#1C1C1C"/>
<path d="M115.201 81.3978H110.402V86.2442H115.201V81.3978Z" fill="#1C1C1C"/>
<path d="M4.79844 86.2435H0V91.0899H4.79844V86.2435Z" fill="#1C1C1C"/>
<path d="M9.59759 86.2435H4.79844V91.0899H9.59759V86.2435Z" fill="#1C1C1C"/>
<path d="M14.3999 86.2435H9.60146V91.0899H14.3999V86.2435Z" fill="#1C1C1C"/>
<path d="M19.1982 86.2435H14.3999V91.0899H19.1982V86.2435Z" fill="#1C1C1C"/>
<path d="M23.9966 86.2435H19.1982V91.0899H23.9966V86.2435Z" fill="#1C1C1C"/>
<path d="M28.8013 86.2435H24.0029V91.0899H28.8013V86.2435Z" fill="#1C1C1C"/>
<path d="M33.5985 86.2435H28.8V91.0899H33.5985V86.2435Z" fill="#1C1C1C"/>
<path d="M52.8021 86.2442L48.0029 86.2435V91.0899H52.8014L52.8021 86.2442Z" fill="#1C1C1C"/>
<path d="M62.3997 86.2435L57.6005 86.2442L57.6012 91.0899H62.3997V86.2435Z" fill="#1C1C1C"/>
<path d="M71.9999 86.2435H67.2015V91.0899H71.9999V86.2435Z" fill="#1C1C1C"/>
<path d="M81.6026 86.2442H76.8041V91.0899H81.6026V86.2442Z" fill="#1C1C1C"/>
<path d="M91.1985 86.2435H86.4001V91.0899H91.1985V86.2435Z" fill="#1C1C1C"/>
<path d="M100.802 86.2442H96.0035V91.0899H100.802V86.2442Z" fill="#1C1C1C"/>
<path d="M120 86.2435H115.202V91.0899H120V86.2435Z" fill="#1C1C1C"/>
<path d="M4.79844 91.0899H0V95.9363H4.79844V91.0899Z" fill="#1C1C1C"/>
<path d="M33.5985 91.0899H28.8V95.9363H33.5985V91.0899Z" fill="#1C1C1C"/>
<path d="M57.6012 91.0899H52.8014L52.8021 95.9363H57.6005L57.6012 91.0899Z" fill="#1C1C1C"/>
<path d="M67.2015 91.0899L62.4027 91.09V95.9363H67.2012L67.2015 91.0899Z" fill="#1C1C1C"/>
<path d="M76.7991 91.09L71.9999 91.0899L72.0006 95.9363H76.7991V91.09Z" fill="#1C1C1C"/>
<path d="M81.6026 91.0899H76.8041V95.9363H81.6026V91.0899Z" fill="#1C1C1C"/>
<path d="M100.802 91.0899H96.0035V95.9363H100.802V91.0899Z" fill="#1C1C1C"/>
<path d="M120 91.0899H115.202V95.9363H120V91.0899Z" fill="#1C1C1C"/>
<path d="M4.79844 95.9363H0V100.784H4.79844V95.9363Z" fill="#1C1C1C"/>
<path d="M14.3999 95.9373H9.60146V100.784H14.3999V95.9373Z" fill="#1C1C1C"/>
<path d="M19.1982 95.9373H14.3999V100.784H19.1982V95.9373Z" fill="#1C1C1C"/>
<path d="M23.9966 95.9373H19.1982V100.784H23.9966V95.9373Z" fill="#1C1C1C"/>
<path d="M33.5985 95.9363H28.8V100.784H33.5985V95.9363Z" fill="#1C1C1C"/>
<path d="M43.2015 95.9373H38.4031V100.784H43.2015V95.9373Z" fill="#1C1C1C"/>
<path d="M52.8014 95.9373H48.0029V100.784H52.8014V95.9373Z" fill="#1C1C1C"/>
<path d="M57.6005 95.9363H52.8021L52.8014 100.784H57.6005V95.9363Z" fill="#1C1C1C"/>
<path d="M62.3997 95.9373H57.6012L57.6005 100.784H62.3997V95.9373Z" fill="#1C1C1C"/>
<path d="M71.9999 95.9373L67.2012 95.9363L67.2015 100.784H71.9999V95.9373Z" fill="#1C1C1C"/>
<path d="M76.7991 95.9363H72.0006L71.9999 100.784H76.7991V95.9363Z" fill="#1C1C1C"/>
<path d="M81.6026 95.9363H76.8041V100.784H81.6026V95.9363Z" fill="#1C1C1C"/>
<path d="M86.4017 95.9373H81.6033L81.6026 100.784H86.4017V95.9373Z" fill="#1C1C1C"/>
<path d="M91.1985 95.9373H86.4001V100.784H91.1985V95.9373Z" fill="#1C1C1C"/>
<path d="M96.0028 95.9373H91.2043V100.784H96.0028V95.9373Z" fill="#1C1C1C"/>
<path d="M100.802 95.9363H96.0035L96.0028 100.784H100.802V95.9363Z" fill="#1C1C1C"/>
<path d="M4.79844 100.784H0V105.629H4.79844V100.784Z" fill="#1C1C1C"/>
<path d="M14.3999 100.784H9.60146V105.629H14.3999V100.784Z" fill="#1C1C1C"/>
<path d="M19.1982 100.784H14.3999V105.629H19.1982V100.784Z" fill="#1C1C1C"/>
<path d="M23.9966 100.784H19.1982V105.629H23.9966V100.784Z" fill="#1C1C1C"/>
<path d="M33.5985 100.784H28.8V105.629H33.5985V100.784Z" fill="#1C1C1C"/>
<path d="M43.2015 100.784H38.4031V105.629H43.2015V100.784Z" fill="#1C1C1C"/>
<path d="M47.9995 100.783L43.2015 100.784V105.629H47.9995V100.783Z" fill="#1C1C1C"/>
<path d="M62.3997 100.784L57.6012 100.783V105.629H62.3997V100.784Z" fill="#1C1C1C"/>
<path d="M67.2015 100.784L62.4027 100.783V105.629H67.2012L67.2015 100.784Z" fill="#1C1C1C"/>
<path d="M71.9999 100.784H67.2015L67.2012 105.629H71.9999V100.784Z" fill="#1C1C1C"/>
<path d="M91.1985 100.784H86.4001V105.629H91.1985V100.784Z" fill="#1C1C1C"/>
<path d="M115.201 100.783H110.402V105.629H115.201V100.783Z" fill="#1C1C1C"/>
<path d="M120 100.783H115.202V105.629H120V100.783Z" fill="#1C1C1C"/>
<path d="M4.79844 105.629H0V110.476H4.79844V105.629Z" fill="#1C1C1C"/>
<path d="M14.3999 105.629H9.60146V110.476H14.3999V105.629Z" fill="#1C1C1C"/>
<path d="M19.1982 105.629H14.3999V110.476H19.1982V105.629Z" fill="#1C1C1C"/>
<path d="M23.9966 105.629H19.1982V110.476H23.9966V105.629Z" fill="#1C1C1C"/>
<path d="M33.5985 105.629H28.8V110.476H33.5985V105.629Z" fill="#1C1C1C"/>
<path d="M47.9995 105.629H43.2015L43.201 110.476H47.9995V105.629Z" fill="#1C1C1C"/>
<path d="M57.6012 105.629L52.8021 105.629V110.476H57.6005L57.6012 105.629Z" fill="#1C1C1C"/>
<path d="M67.2012 105.629H62.4027V110.476H67.2012V105.629Z" fill="#1C1C1C"/>
<path d="M76.7991 105.629L71.9999 105.629L72.0006 110.476H76.7991V105.629Z" fill="#1C1C1C"/>
<path d="M86.4017 105.629H81.6033V110.476H86.4017V105.629Z" fill="#1C1C1C"/>
<path d="M100.802 105.629H96.0035V110.476H100.802V105.629Z" fill="#1C1C1C"/>
<path d="M105.6 105.629H100.802V110.476H105.6V105.629Z" fill="#1C1C1C"/>
<path d="M110.403 105.629H105.605V110.476H110.403V105.629Z" fill="#1C1C1C"/>
<path d="M115.201 105.629H110.402V110.476H115.201V105.629Z" fill="#1C1C1C"/>
<path d="M120 105.629H115.202V110.476H120V105.629Z" fill="#1C1C1C"/>
<path d="M4.79844 110.476H0V115.322H4.79844V110.476Z" fill="#1C1C1C"/>
<path d="M33.5985 110.476H28.8V115.322H33.5985V110.476Z" fill="#1C1C1C"/>
<path d="M43.201 110.476L38.4031 110.476V115.322H43.2015L43.201 110.476Z" fill="#1C1C1C"/>
<path d="M52.8021 110.476L48.0029 110.476V115.322H52.8014L52.8021 110.476Z" fill="#1C1C1C"/>
<path d="M57.6005 110.476H52.8021L52.8014 115.322H57.6005V110.476Z" fill="#1C1C1C"/>
<path d="M72.0006 110.476H67.2012L67.2015 115.322H71.9999L72.0006 110.476Z" fill="#1C1C1C"/>
<path d="M76.7991 110.476H72.0006L71.9999 115.322H76.7991V110.476Z" fill="#1C1C1C"/>
<path d="M96.0035 110.476L91.2043 110.476V115.322H96.0028L96.0035 110.476Z" fill="#1C1C1C"/>
<path d="M100.802 110.476H96.0035L96.0028 115.322H100.802V110.476Z" fill="#1C1C1C"/>
<path d="M110.403 110.476H105.605V115.322H110.403V110.476Z" fill="#1C1C1C"/>
<path d="M115.201 110.476H110.402V115.322H115.201V110.476Z" fill="#1C1C1C"/>
<path d="M120 110.476H115.202V115.322H120V110.476Z" fill="#1C1C1C"/>
<path d="M4.79844 115.322H0V120.169H4.79844V115.322Z" fill="#1C1C1C"/>
<path d="M9.59759 115.322L4.79844 115.322V120.169H9.59759V115.322Z" fill="#1C1C1C"/>
<path d="M14.3999 115.322H9.60146V120.169H14.3999V115.322Z" fill="#1C1C1C"/>
<path d="M19.1982 115.322H14.3999V120.169H19.1982V115.322Z" fill="#1C1C1C"/>
<path d="M23.9966 115.322H19.1982V120.169H23.9966V115.322Z" fill="#1C1C1C"/>
<path d="M28.8013 115.322H24.0029V120.169H28.8013V115.322Z" fill="#1C1C1C"/>
<path d="M33.5985 115.322H28.8V120.169H33.5985V115.322Z" fill="#1C1C1C"/>
<path d="M43.2015 115.322H38.4031V120.169H43.2015V115.322Z" fill="#1C1C1C"/>
<path d="M47.9995 115.322L43.2015 115.322V120.169H47.9995V115.322Z" fill="#1C1C1C"/>
<path d="M52.8014 115.322H48.0029V120.169H52.8014V115.322Z" fill="#1C1C1C"/>
<path d="M62.3997 115.322L57.6005 115.322L57.6012 120.169H62.3997V115.322Z" fill="#1C1C1C"/>
<path d="M81.6026 115.322H76.8041V120.169H81.6026V115.322Z" fill="#1C1C1C"/>
<path d="M86.4017 115.322H81.6026V120.169H86.4017V115.322Z" fill="#1C1C1C"/>
<path d="M105.6 115.322L100.802 115.322L100.801 120.169H105.6V115.322Z" fill="#1C1C1C"/>
<path d="M120 115.322H115.202V120.169H120V115.322Z" fill="#1C1C1C"/>
</svg>
